<?xml version="1.0" encoding="UTF-8" standalone="no"?>
<!DOCTYPE svg PUBLIC "-//W3C//DTD SVG 1.1//EN"
 "http://www.w3.org/Graphics/SVG/1.1/DTD/svg11.dtd">
<!-- Generated by graphviz version 2.28.0 (20120921.0216)
 -->
<!-- Title: g Pages: 1 -->
<svg width="415pt" height="586pt"
 viewBox="0.00 0.00 415.00 586.00" xmlns="http://www.w3.org/2000/svg" xmlns:xlink="http://www.w3.org/1999/xlink">
<g id="graph1" class="graph" transform="scale(1 1) rotate(0) translate(4 582)">
<title>g</title>
<polygon fill="white" stroke="white" points="-4,5 -4,-582 412,-582 412,5 -4,5"/>
<!-- remote ip -->
<g id="node2" class="node"><title>remote ip</title>
<text text-anchor="middle" x="41" y="-556.2" font-family="Times,serif" font-size="16.00">remote ip</text>
</g>
<!-- gateway -->
<g id="node4" class="node"><title>gateway</title>
<text text-anchor="middle" x="41" y="-376.2" font-family="Times,serif" font-size="16.00">gateway</text>
</g>
<!-- remote ip&#45;&gt;gateway -->
<g id="edge3" class="edge"><title>remote ip&#45;&gt;gateway</title>
<path fill="none" stroke="black" d="M41,-541.933C41,-510.966 41,-445.299 41,-408.129"/>
<polygon fill="black" stroke="black" points="44.5001,-408.016 41,-398.016 37.5001,-408.016 44.5001,-408.016"/>
</g>
<!-- local ip -->
<g id="node5" class="node"><title>local ip</title>
<text text-anchor="middle" x="41" y="-196.2" font-family="Times,serif" font-size="16.00">local ip</text>
</g>
<!-- gateway&#45;&gt;local ip -->
<g id="edge4" class="edge"><title>gateway&#45;&gt;local ip</title>
<path fill="none" stroke="black" d="M41,-361.933C41,-330.966 41,-265.299 41,-228.129"/>
<polygon fill="black" stroke="black" points="44.5001,-228.016 41,-218.016 37.5001,-228.016 44.5001,-228.016"/>
</g>
<!-- local ether -->
<g id="node6" class="node"><title>local ether</title>
<text text-anchor="middle" x="41" y="-15.2" font-family="Times,serif" font-size="16.00">local ether</text>
</g>
<!-- local ip&#45;&gt;local ether -->
<g id="edge5" class="edge"><title>local ip&#45;&gt;local ether</title>
<path fill="none" stroke="black" d="M41,-181.837C41,-150.696 41,-84.6601 41,-47.2816"/>
<polygon fill="black" stroke="black" points="44.5001,-47.1113 41,-37.1113 37.5001,-47.1113 44.5001,-47.1113"/>
</g>
<!-- 205.155.65.103 -->
<g id="node7" class="node"><title>205.155.65.103</title>
<ellipse fill="antiquewhite" stroke="black" cx="175" cy="-560" rx="71.2405" ry="18"/>
<text text-anchor="middle" x="175" y="-556.3" font-family="Times,serif" font-size="14.00">205.155.65.103</text>
</g>
<!-- 0:15:17:93:69:f2 -->
<g id="node9" class="node"><title>0:15:17:93:69:f2</title>
<polygon fill="yellow" stroke="black" points="254.25,-398 105.75,-398 105.75,-362 254.25,-362 254.25,-398"/>
<text text-anchor="middle" x="180" y="-376.3" font-family="Courier,monospace" font-weight="bold" font-size="14.00">0:15:17:93:69:f2</text>
</g>
<!-- 205.155.65.103&#45;&gt;0:15:17:93:69:f2 -->
<g id="edge7" class="edge"><title>205.155.65.103&#45;&gt;0:15:17:93:69:f2</title>
<path fill="none" stroke="black" d="M175.479,-541.933C176.349,-510.966 178.194,-445.299 179.238,-408.129"/>
<polygon fill="black" stroke="black" points="182.74,-408.11 179.522,-398.016 175.743,-407.913 182.74,-408.11"/>
</g>
<!-- 18.9.22.69 -->
<g id="node8" class="node"><title>18.9.22.69</title>
<ellipse fill="antiquewhite" stroke="black" cx="336" cy="-560" rx="71.2405" ry="18"/>
<text text-anchor="middle" x="336" y="-556.3" font-family="Times,serif" font-size="14.00">205.155.65.103</text>
</g>
<!-- 18.9.22.69&#45;&gt;0:15:17:93:69:f2 -->
<g id="edge11" class="edge"><title>18.9.22.69&#45;&gt;0:15:17:93:69:f2</title>
<path fill="none" stroke="black" d="M321.324,-542.254C293.753,-510.795 234.095,-442.723 201.809,-405.885"/>
<polygon fill="black" stroke="black" points="204.203,-403.306 194.979,-398.092 198.938,-407.919 204.203,-403.306"/>
</g>
<!-- 172.27.46.196 -->
<g id="node11" class="node"><title>172.27.46.196</title>
<ellipse fill="skyblue" stroke="black" cx="180" cy="-200" rx="66.4165" ry="18"/>
<text text-anchor="middle" x="180" y="-196.3" font-family="Times,serif" font-size="14.00">172.27.46.196</text>
</g>
<!-- 0:15:17:93:69:f2&#45;&gt;172.27.46.196 -->
<g id="edge8" class="edge"><title>0:15:17:93:69:f2&#45;&gt;172.27.46.196</title>
<path fill="none" stroke="black" d="M175.821,-361.933C172.699,-330.966 172.42,-265.299 174.984,-228.129"/>
<polygon fill="black" stroke="black" points="178.484,-228.272 175.826,-218.016 171.508,-227.691 178.484,-228.272"/>
</g>
<!-- 0:15:17:93:69:f2&#45;&gt;172.27.46.196 -->
<g id="edge12" class="edge"><title>0:15:17:93:69:f2&#45;&gt;172.27.46.196</title>
<path fill="none" stroke="black" d="M184.179,-361.933C187.301,-330.966 187.58,-265.299 185.016,-228.129"/>
<polygon fill="black" stroke="black" points="188.492,-227.691 184.174,-218.016 181.516,-228.272 188.492,-227.691"/>
</g>
<!-- 70:56:81:a2:1f:f9 -->
<g id="node12" class="node"><title>70:56:81:a2:1f:f9</title>
<polygon fill="skyblue" stroke="black" points="259,-37.5 101,-37.5 101,-0.5 259,-0.5 259,-37.5"/>
<text text-anchor="start" x="109.5" y="-23.3" font-family="Courier,monospace" font-weight="bold" font-size="14.00">70:56:81:a2:1f:f9</text>
<text text-anchor="start" x="116.5" y="-9.3" font-family="Times,serif" font-size="14.00">air2&#45;2012&#45;09&#45;21.E01</text>
</g>
<!-- 172.27.46.196&#45;&gt;70:56:81:a2:1f:f9 -->
<g id="edge9" class="edge"><title>172.27.46.196&#45;&gt;70:56:81:a2:1f:f9</title>
<path fill="none" stroke="black" d="M175.821,-181.837C172.715,-150.856 172.423,-85.3347 174.945,-47.8574"/>
<polygon fill="black" stroke="black" points="178.454,-47.8893 175.774,-37.639 171.477,-47.3232 178.454,-47.8893"/>
</g>
<!-- 172.27.46.196&#45;&gt;70:56:81:a2:1f:f9 -->
<g id="edge13" class="edge"><title>172.27.46.196&#45;&gt;70:56:81:a2:1f:f9</title>
<path fill="none" stroke="black" d="M184.179,-181.837C187.285,-150.856 187.577,-85.3347 185.055,-47.8574"/>
<polygon fill="black" stroke="black" points="188.523,-47.3232 184.226,-37.639 181.546,-47.8893 188.523,-47.3232"/>
</g>
</g>
</svg>
